<svg width="226" height="43" viewBox="0 0 226 43" fill="none" xmlns="http://www.w3.org/2000/svg">
<path d="M48.9162 29.5362C56.9086 17.5602 69.9434 1.79421 76.9499 0.906449C85.7798 -0.225262 89.7106 6.47698 90.1909 10.4782V20.7642H76.8996V13.8004C76.8996 11.112 68.0748 23.2515 68.0748 23.2515H90.2286V42.8099H76.9373V33.9851H68.1351C61.0406 33.9851 59.0161 39.782 57.1676 42.7873H35.5922V33.9851H26.7623C19.6753 33.9851 17.6558 39.7946 15.8073 42.7873H0.856175C-0.808698 39.7292 24.7479 2.23432 35.6374 0.916509C44.4547 -0.222747 48.4409 6.48704 48.9162 10.5008V20.812H35.5871V13.7878C35.5871 11.0918 26.7698 23.2816 26.7698 23.2816H48.9237L48.9162 29.5362ZM94.2676 13.232H107.046C107.046 5.2145 102.786 1.06405 94.2676 0.780704V13.232ZM94.2676 15.4276V42.7772H107.046V15.4276H94.2676Z" fill="#00A2BB"/>
<path d="M129.227 10.3022V10.4405H126.823L126.257 8.60712H122.679L122.115 10.4405H119.827V10.3022L123.134 0.790771H125.9L129.227 10.3022ZM125.671 6.70585L124.499 2.95611H124.444L123.272 6.70585H125.671Z" fill="#00A2BB"/>
<path d="M130.88 6.62286V0.790771H133.045V6.59519C133.045 7.66906 133.445 8.63479 134.962 8.63479C136.478 8.63479 136.883 7.66906 136.883 6.59519V0.790771H139.061V6.62286C139.061 9.25597 137.255 10.5637 134.954 10.5637C132.701 10.5637 130.88 9.25597 130.88 6.62286Z" fill="#00A2BB"/>
<path d="M143.713 2.7348H140.929V0.790771H148.675V2.7348H145.891V10.4405H143.713V2.7348Z" fill="#00A2BB"/>
<path d="M150.121 5.61707C150.121 2.85067 151.693 0.667725 154.809 0.667725C157.925 0.667725 159.494 2.8381 159.494 5.61707C159.494 8.39605 157.91 10.5639 154.809 10.5639C151.708 10.5639 150.121 8.3709 150.121 5.61707ZM157.289 5.61707C157.289 3.67305 156.406 2.62433 154.809 2.62433C153.212 2.62433 152.327 3.67305 152.327 5.61707C152.327 7.5611 153.21 8.60731 154.809 8.60731C156.409 8.60731 157.289 7.55859 157.289 5.61707Z" fill="#00A2BB"/>
<path d="M161.7 0.790771H164.069L166.785 5.21702H166.841L169.557 0.790771H171.898V10.4405H169.803V4.21105H169.748L166.868 8.84101H166.73L163.85 4.1683H163.792V10.4405H161.698L161.7 0.790771Z" fill="#00A2BB"/>
<path d="M174.104 5.61707C174.104 2.85067 175.675 0.667725 178.791 0.667725C181.907 0.667725 183.477 2.8381 183.477 5.61707C183.477 8.39605 181.9 10.5639 178.791 10.5639C175.683 10.5639 174.104 8.3709 174.104 5.61707ZM181.271 5.61707C181.271 3.67305 180.388 2.62433 178.791 2.62433C177.194 2.62433 176.309 3.67305 176.309 5.61707C176.309 7.5611 177.192 8.60731 178.791 8.60731C180.391 8.60731 181.271 7.55859 181.271 5.61707Z" fill="#00A2BB"/>
<path d="M187.707 2.7348H184.918V0.790771H192.666V2.7348H189.885V10.4405H187.707V2.7348Z" fill="#00A2BB"/>
<path d="M194.668 0.790771H196.846V10.4405H194.668V0.790771Z" fill="#00A2BB"/>
<path d="M198.775 0.929092V0.790771H201.242L203.475 7.86774H203.528L205.721 0.795801H208.236V0.934121L204.826 10.4405H202.22L198.775 0.929092Z" fill="#00A2BB"/>
<path d="M210.16 0.790771H217.053V2.72223H212.33V4.50027H216.631V6.42921H212.33V8.52413H217.058V10.4405H210.16V0.790771Z" fill="#00A2BB"/>
<path d="M129.227 26.4781V26.6164H126.823L126.257 24.7831H122.679L122.115 26.6164H119.827V26.4781L123.134 16.9692H125.9L129.227 26.4781ZM125.671 22.8818L124.499 19.1321H124.444L123.272 22.8818H125.671Z" fill="#00A2BB"/>
<path d="M139.287 26.4782V26.6165H136.752L134.67 23.2088H133.319V26.614H131.156V16.9668H135.568C137.62 16.9668 138.862 18.4003 138.862 20.04C138.89 20.6644 138.722 21.2818 138.38 21.8052C138.038 22.3286 137.541 22.7315 136.958 22.9573L139.287 26.4782ZM133.319 21.2824H135.457C136.325 21.2824 136.642 20.6612 136.642 20.0551C136.651 19.8984 136.626 19.7416 136.569 19.5952C136.513 19.4488 136.425 19.3163 136.313 19.2066C136.201 19.0969 136.066 19.0126 135.919 18.9595C135.771 18.9063 135.613 18.8854 135.457 18.8983H133.319V21.2824Z" fill="#00A2BB"/>
<path d="M143.243 18.9083H140.459V16.9668H148.2V18.9083H145.433V26.614H143.256L143.243 18.9083Z" fill="#00A2BB"/>
<path d="M150.212 16.9668H152.39V26.614H150.212V16.9668Z" fill="#00A2BB"/>
<path d="M155.139 16.9668H162.032V18.8957H157.304V20.9454H161.605V22.8743H157.304V26.609H155.141L155.139 16.9668Z" fill="#00A2BB"/>
<path d="M164.373 16.9668H166.559V26.614H164.381L164.373 16.9668Z" fill="#00A2BB"/>
<path d="M168.757 21.803C168.757 19.019 170.326 16.8411 173.43 16.8411C175.897 16.8411 177.564 18.5638 177.705 20.6134H175.499C175.416 19.6905 174.783 18.8102 173.432 18.8102C171.833 18.8102 170.965 19.869 170.965 21.813C170.965 23.7571 171.833 24.8058 173.432 24.8058C173.933 24.8372 174.427 24.6765 174.813 24.3564C175.2 24.0363 175.45 23.581 175.512 23.0831H177.705C177.511 25.0673 175.884 26.7473 173.43 26.7473C170.331 26.7297 168.757 24.5468 168.757 21.803Z" fill="#00A2BB"/>
<path d="M179.906 16.9668H182.083V26.614H179.906V16.9668Z" fill="#00A2BB"/>
<path d="M193.413 26.4781V26.6164H191.016L190.451 24.7806H186.867L186.301 26.6139H184.015V26.4781L187.322 16.9692H190.088L193.413 26.4781ZM189.857 22.8818L188.69 19.1295H188.635L187.463 22.8793L189.857 22.8818Z" fill="#00A2BB"/>
<path d="M195.344 16.9668H197.507V24.6851H201.891V26.614H195.352L195.344 16.9668Z" fill="#00A2BB"/>
<path d="M120.654 33.1604H122.832V42.8101H120.654V33.1604Z" fill="#00A2BB"/>
<path d="M125.588 33.1604H128.138L131.695 39.4603H131.75V33.1604H133.9V42.8101H131.335L127.779 36.5505H127.724V42.8101H125.588V33.1604Z" fill="#00A2BB"/>
<path d="M138.681 35.1044H135.897V33.1604H143.643V35.1044H140.859V42.8101H138.681V35.1044Z" fill="#00A2BB"/>
<path d="M145.642 33.1604H152.533V35.0919H147.805V36.8674H152.106V38.8013H147.805V40.8963H152.533V42.8126H145.642V33.1604Z" fill="#00A2BB"/>
<path d="M154.877 33.1604H157.04V40.8787H161.423V42.8101H154.885L154.877 33.1604Z" fill="#00A2BB"/>
<path d="M163.352 33.1604H165.518V40.8787H169.901V42.8101H163.362L163.352 33.1604Z" fill="#00A2BB"/>
<path d="M171.84 33.1604H174.018V42.8101H171.84V33.1604Z" fill="#00A2BB"/>
<path d="M176.214 37.999C176.214 35.215 177.783 33.0371 180.886 33.0371C183.353 33.0371 184.95 34.6215 185.162 36.5253H182.956C182.803 35.7381 182.239 34.9937 180.889 34.9937C179.289 34.9937 178.419 36.055 178.419 37.999C178.419 39.9431 179.289 40.9893 180.889 40.9893C182.184 40.9893 182.775 40.2876 182.969 39.5155H181.163V37.5992H185.23V38.6881C185.23 41.2659 183.411 42.9333 180.889 42.9333C177.783 42.9333 176.214 40.7428 176.214 37.999Z" fill="#00A2BB"/>
<path d="M187.433 33.1604H194.323V35.0919H189.595V36.8674H193.896V38.8013H189.595V40.8963H194.323V42.8126H187.433V33.1604Z" fill="#00A2BB"/>
<path d="M196.667 33.1604H199.217L202.774 39.4603H202.826V33.1604H204.977V42.8101H202.414L198.858 36.5505H198.803V42.8101H196.667V33.1604Z" fill="#00A2BB"/>
<path d="M207.182 37.999C207.182 35.215 208.754 33.0371 211.855 33.0371C214.322 33.0371 215.989 34.7598 216.13 36.8095H213.925C213.842 35.8865 213.208 35.0038 211.857 35.0038C210.258 35.0038 209.39 36.0651 209.39 38.0091C209.39 39.9531 210.258 40.9993 211.857 40.9993C213.153 40.9993 213.774 40.187 213.94 39.2766H216.13C215.939 41.2609 214.312 42.9434 211.855 42.9434C208.754 42.9333 207.182 40.7428 207.182 37.999Z" fill="#00A2BB"/>
<path d="M218.333 33.1604H225.224V35.0919H220.499V36.8674H224.799V38.8013H220.499V40.8963H225.224V42.8126H218.333V33.1604Z" fill="#00A2BB"/>
</svg>
